Coordinates
version=1
nRows=8
nColumns=42
inDegrees=yes

Units are S.I. units (second, meters, Newtons, ...)
If the header above contains a line with 'inDegrees', this indicates whether rotational values are in degrees (yes) or radians (no).

endheader
time	pelvis_tilt	pelvis_list	pelvis_rotation	pelvis_tx	pelvis_ty	pelvis_tz	hip_flexion_r	hip_adduction_r	hip_rotation_r	knee_angle_r	knee_adduction_r	knee_angle_r_beta	ankle_angle_r	subtalar_angle_r	mtp_angle_r	hip_flexion_l	hip_adduction_l	hip_rotation_l	knee_angle_l	knee_adduction_l	knee_angle_l_beta	ankle_angle_l	subtalar_angle_l	mtp_angle_l	lumbar_extension	lumbar_bending	lumbar_rotation	arm_flex_r	arm_add_r	arm_rot_r	elbow_flex_r	pro_sup_r	wrist_flex_r	wrist_dev_r	arm_flex_l	arm_add_l	arm_rot_l	elbow_flex_l	pro_sup_l	wrist_flex_l	wrist_dev_l
      0.95000000	     -2.04682841	     -2.41005161	      0.67868821	     -0.58397742	      0.89657875	     -0.13722412	     16.01827228	     -6.33330420	     -2.58939528	     58.18960731	     10.18372653	      1.01560024	      6.87523495	     -8.10617324	     -7.61721094	      7.83901623	    -10.67217797	     -4.91639980	     14.13851048	     20.78241292	      0.24676356	      7.61975283	      0.25320887	     -7.61721094	    -10.25027600	      2.55192856	      0.33767944	     -0.42155808	    -15.18440529	     -5.20227722	     24.42869628	     90.00000001	      0.00000000	      0.00000000	     -1.78125336	    -13.84164411	     -3.45250722	     31.35456489	     90.00000001	      0.00000000	      0.00000000
      0.96000000	     -1.84151072	     -2.64968884	      1.16279069	     -0.57377885	      0.89711662	     -0.13782048	     16.83664472	     -5.91046529	     -3.07195715	     56.84045745	     10.05518518	      0.99205313	      8.62741296	     -8.78473788	     -7.61456921	      6.48499288	    -10.92591544	     -4.20478755	     13.03234439	     21.04008565	      0.22745732	      8.46906245	      1.05846035	     -7.61456921	    -10.45559856	      2.89509904	     -0.01009954	     -0.91780259	    -14.95905994	     -5.70070754	     23.88471764	     90.00000001	      0.00000000	      0.00000000	     -1.60151593	    -14.24593693	     -3.01023096	     32.84251007	     90.00000001	      0.00000000	      0.00000000
      0.97000000	     -1.81760522	     -2.71030881	      1.59767709	     -0.56380617	      0.89731917	     -0.13855764	     17.86298904	     -5.79728607	     -3.50762973	     55.35783893	     10.06859029	      0.96617656	      9.19932360	     -9.11595186	     -7.61249929	      5.55513515	    -10.87380863	     -4.05933774	     12.52507485	     20.91317605	      0.21860380	      8.88361458	      1.37328080	     -7.61249929	    -10.46452775	      3.05852833	     -0.35808710	     -1.47959413	    -14.76327476	     -6.05504555	     23.58997679	     90.00000001	      0.00000000	      0.00000000	     -1.25805751	    -14.61001632	     -2.72450474	     33.89073015	     90.00000001	      0.00000000	      0.00000000
      0.98000000	     -1.73335397	     -2.75062445	      2.02737945	     -0.55386230	      0.89733554	     -0.13909777	     18.74678025	     -5.68871139	     -3.56190776	     53.63510863	     10.40508482	      0.93610924	      9.45547334	    -10.56574967	     -7.60485519	      4.43562045	    -10.90733870	     -3.46137353	     11.61897536	     21.08332874	      0.20278938	      9.26473092	      1.26764582	     -7.60485519	    -10.57352181	      3.15861472	     -0.73617713	     -1.79790488	    -14.32665636	     -7.62609185	     23.00214226	     90.00000001	      0.00000000	      0.00000000	     -1.36707959	    -15.31207322	     -1.57652680	     36.00130040	     90.00000001	      0.00000000	      0.00000000
      0.99000000	     -1.71301213	     -2.80598747	      2.43487905	     -0.54395549	      0.89708272	     -0.13961990	     19.65297151	     -5.56577922	     -4.11803152	     51.73594999	     10.33857724	      0.90296267	     10.03977522	    -11.07268618	     -7.60234013	      3.54599644	    -10.95168249	     -3.24973786	     11.16744766	     21.11172541	      0.19490873	      9.76717432	      1.60530870	     -7.60234013	    -10.59417199	      3.30358095	     -1.03292696	     -2.40797761	    -14.13752717	     -7.88491886	     22.87328881	     90.00000001	      0.00000000	      0.00000000	     -0.85386438	    -15.62339635	     -1.47086327	     36.63235297	     90.00000001	      0.00000000	      0.00000000
      1.00000000	     -1.68140005	     -2.84000555	      2.79031708	     -0.53409802	      0.89666755	     -0.14005796	     20.47210685	     -5.45925395	     -4.57424065	     49.60166804	     10.34742962	      0.86571242	     10.30550716	    -11.80085988	     -7.59955414	      2.63138130	    -10.97632476	     -2.96296609	     10.66735785	     21.13508744	      0.18618052	     10.30189980	      1.95667331	     -7.59955414	    -10.64656351	      3.41759729	     -1.30011938	     -2.95141909	    -13.93871732	     -8.23491501	     22.74375096	     90.00000001	      0.00000000	      0.00000000	     -0.47779833	    -15.99437668	     -1.22890098	     37.56719946	     90.00000001	      0.00000000	      0.00000000
      1.01000000	     -1.72074019	     -2.78676981	      3.07105734	     -0.52433292	      0.89602327	     -0.14044350	     21.29984144	     -5.45040244	     -4.72015616	     47.25114686	     10.55199740	      0.82468809	     10.05408972	    -13.14449603	     -7.59312889	      1.80764674	    -10.86127152	     -2.64477175	     10.19324232	     21.07413815	      0.17790564	     10.66224885	      1.96064335	     -7.59312889	    -10.64283529	      3.43233994	     -1.49080354	     -3.42461704	    -13.66802369	     -9.07499195	     22.54987795	     90.00000001	      0.00000000	      0.00000000	     -0.23646201	    -16.47255399	     -0.62142222	     38.84615010	     90.00000001	      0.00000000	      0.00000000
      1.02000000	     -1.93786657	     -2.49812658	      3.27313749	     -0.51471911	      0.89485011	     -0.14080424	     22.41994689	     -5.77868592	     -5.52425198	     45.11641259	     10.30979970	      0.78742995	     10.12425917	    -12.90208129	     -7.59210857	      1.31744926	    -10.52304728	     -2.93962363	     10.22599176	     21.03122107	      0.17847723	     10.87959133	      2.03436608	     -7.59210857	    -10.46431042	      3.15742905	     -1.68197223	     -3.94793688	    -13.50856410	     -9.09613327	     22.55637843	     90.00000001	      0.00000000	      0.00000000	      0.34437689	    -16.79089267	     -0.66525692	     39.25222146	     90.00000001	      0.00000000	      0.00000000
